<svg width="56" height="56" viewBox="0 0 56 56" fill="none" xmlns="http://www.w3.org/2000/svg">
<rect x="4" y="4" width="48" height="48" rx="24" fill="#FA2215"/>
<rect opacity="0.25" width="56" height="56" rx="28" fill="#FA2215"/>
<path fill-rule="evenodd" clip-rule="evenodd" d="M27 18C25.6739 18 24.4021 18.5268 23.4645 19.4645C22.5268 20.4021 22 21.6739 22 23C22 24.3261 22.5268 25.5979 23.4645 26.5355C24.4021 27.4732 25.6739 28 27 28C28.3261 28 29.5979 27.4732 30.5355 26.5355C31.4732 25.5979 32 24.3261 32 23C32 21.6739 31.4732 20.4021 30.5355 19.4645C29.5979 18.5268 28.3261 18 27 18ZM27 29C24.605 29 22.425 29.694 20.822 30.672C20.022 31.16 19.338 31.736 18.844 32.362C18.358 32.976 18 33.713 18 34.5C18 35.345 18.411 36.011 19.003 36.486C19.563 36.936 20.302 37.234 21.087 37.442C22.665 37.859 24.771 38 27 38C27.2307 38 27.459 37.9983 27.685 37.995C27.8525 37.9927 28.0167 37.9484 28.1626 37.8661C28.3085 37.7838 28.4313 37.6662 28.5199 37.524C28.6085 37.3819 28.66 37.2198 28.6696 37.0525C28.6792 36.8853 28.6467 36.7184 28.575 36.567C28.1958 35.7644 27.9994 34.8877 28 34C28 32.748 28.383 31.588 29.037 30.627C29.1342 30.4842 29.1928 30.3186 29.207 30.1465C29.2212 29.9743 29.1905 29.8014 29.118 29.6446C29.0455 29.4878 28.9336 29.3524 28.7932 29.2517C28.6528 29.151 28.4888 29.0884 28.317 29.07C27.8863 29.0233 27.4473 29 27 29ZM32.586 31.172C32.3974 30.9898 32.1448 30.889 31.8826 30.8913C31.6204 30.8936 31.3696 30.9988 31.1842 31.1842C30.9988 31.3696 30.8936 31.6204 30.8913 31.8826C30.889 32.1448 30.9898 32.3974 31.172 32.586L32.586 34L31.172 35.414C31.0765 35.5062 31.0003 35.6166 30.9479 35.7386C30.8955 35.8606 30.8679 35.9918 30.8667 36.1246C30.8656 36.2574 30.8909 36.3891 30.9412 36.512C30.9915 36.6348 31.0657 36.7465 31.1596 36.8404C31.2535 36.9343 31.3651 37.0085 31.488 37.0588C31.6109 37.1091 31.7426 37.1344 31.8754 37.1333C32.0082 37.1321 32.1394 37.1045 32.2614 37.0521C32.3834 36.9997 32.4938 36.9235 32.586 36.828L34 35.414L35.414 36.828C35.5062 36.9235 35.6166 36.9997 35.7386 37.0521C35.8606 37.1045 35.9918 37.1321 36.1246 37.1333C36.2574 37.1344 36.3891 37.1091 36.512 37.0588C36.6348 37.0085 36.7465 36.9343 36.8404 36.8404C36.9343 36.7465 37.0085 36.6348 37.0588 36.512C37.1091 36.3891 37.1344 36.2574 37.1333 36.1246C37.1321 35.9918 37.1045 35.8606 37.0521 35.7386C36.9997 35.6166 36.9235 35.5062 36.828 35.414L35.414 34L36.828 32.586C37.0102 32.3974 37.111 32.1448 37.1087 31.8826C37.1064 31.6204 37.0012 31.3696 36.8158 31.1842C36.6304 30.9988 36.3796 30.8936 36.1174 30.8913C35.8552 30.889 35.6026 30.9898 35.414 31.172L34 32.586L32.586 31.172Z" fill="white"/>
</svg>
