<svg width="56" height="56" viewBox="0 0 56 56" fill="none" xmlns="http://www.w3.org/2000/svg">
<rect x="4" y="4" width="48" height="48" rx="24" fill="black"/>
<rect opacity="0.25" width="56" height="56" rx="28" fill="black"/>
<path d="M26.1298 30.8417L25.3428 33.7817L23.4108 33.2647L24.1978 30.3247C23.0198 29.8905 21.925 29.2577 20.9608 28.4537L18.8078 30.6067L17.3938 29.1927L19.5468 27.0387C18.3309 25.5824 17.5139 23.8355 17.1758 21.9687L18.0758 21.8047C20.9651 23.8875 24.438 25.0056 27.9998 24.9997C31.7038 24.9997 35.1318 23.8157 37.9238 21.8047L38.8238 21.9677C38.4861 23.8347 37.6695 25.582 36.4538 27.0387L38.6068 29.1927L37.1928 30.6067L35.0388 28.4537C34.0746 29.258 32.9798 29.8912 31.8018 30.3257L32.5898 33.2647L30.6578 33.7817L29.8698 30.8417C28.6321 31.0536 27.3674 31.0536 26.1298 30.8417Z" fill="white"/>
</svg>
