<svg width="56" height="56" viewBox="0 0 56 56" fill="none" xmlns="http://www.w3.org/2000/svg">
<rect x="4" y="4" width="48" height="48" rx="24" fill="#043867"/>
<rect opacity="0.25" width="56" height="56" rx="28" fill="#043867"/>
<path d="M17.1816 27C18.1216 21.88 22.6076 18 27.9996 18C33.3916 18 37.8776 21.88 38.8186 27C37.8786 32.12 33.3916 36 27.9996 36C22.6076 36 18.1216 32.12 17.1816 27ZM27.9996 32C29.3257 32 30.5975 31.4732 31.5352 30.5355C32.4729 29.5979 32.9996 28.3261 32.9996 27C32.9996 25.6739 32.4729 24.4021 31.5352 23.4645C30.5975 22.5268 29.3257 22 27.9996 22C26.6736 22 25.4018 22.5268 24.4641 23.4645C23.5264 24.4021 22.9996 25.6739 22.9996 27C22.9996 28.3261 23.5264 29.5979 24.4641 30.5355C25.4018 31.4732 26.6736 32 27.9996 32ZM27.9996 30C27.204 30 26.4409 29.6839 25.8783 29.1213C25.3157 28.5587 24.9996 27.7956 24.9996 27C24.9996 26.2044 25.3157 25.4413 25.8783 24.8787C26.4409 24.3161 27.204 24 27.9996 24C28.7953 24 29.5584 24.3161 30.121 24.8787C30.6836 25.4413 30.9996 26.2044 30.9996 27C30.9996 27.7956 30.6836 28.5587 30.121 29.1213C29.5584 29.6839 28.7953 30 27.9996 30Z" fill="white"/>
</svg>
