<svg width="56" height="56" viewBox="0 0 56 56" fill="none" xmlns="http://www.w3.org/2000/svg">
<rect x="4" y="4" width="48" height="48" rx="24" fill="#043867"/>
<rect opacity="0.25" width="56" height="56" rx="28" fill="#043867"/>
<path d="M36 20H20C18.9 20 18.01 20.9 18.01 22L18 34C18 35.1 18.9 36 20 36H36C37.1 36 38 35.1 38 34V22C38 20.9 37.1 20 36 20ZM35.6 24.25L28.53 28.67C28.21 28.87 27.79 28.87 27.47 28.67L20.4 24.25C20.2997 24.1937 20.2119 24.1177 20.1419 24.0265C20.0719 23.9352 20.0211 23.8308 19.9926 23.7194C19.9641 23.608 19.9585 23.4919 19.9762 23.3783C19.9938 23.2647 20.0343 23.1558 20.0953 23.0583C20.1562 22.9608 20.2363 22.8767 20.3307 22.811C20.4251 22.7453 20.5319 22.6995 20.6445 22.6763C20.7571 22.6531 20.8733 22.653 20.986 22.6759C21.0986 22.6989 21.2055 22.7445 21.3 22.81L28 27L34.7 22.81C34.7945 22.7445 34.9014 22.6989 35.014 22.6759C35.1267 22.653 35.2429 22.6531 35.3555 22.6763C35.4681 22.6995 35.5749 22.7453 35.6693 22.811C35.7637 22.8767 35.8438 22.9608 35.9047 23.0583C35.9657 23.1558 36.0062 23.2647 36.0238 23.3783C36.0415 23.4919 36.0359 23.608 36.0074 23.7194C35.9789 23.8308 35.9281 23.9352 35.8581 24.0265C35.7881 24.1177 35.7003 24.1937 35.6 24.25Z" fill="white"/>
</svg>
