<svg width="56" height="56" viewBox="0 0 56 56" fill="none" xmlns="http://www.w3.org/2000/svg">
<rect x="4" y="4" width="48" height="48" rx="24" fill="#00A700"/>
<rect opacity="0.25" width="56" height="56" rx="28" fill="#00A700"/>
<path d="M38.8975 21.6253C38.7895 21.5579 38.6662 21.5191 38.5391 21.5126C38.412 21.506 38.2853 21.5319 38.1709 21.5878C34.1462 23.5566 31.2719 22.6341 28.2334 21.661C25.0375 20.6438 21.7375 19.5891 17.1709 21.8185C17.0448 21.88 16.9385 21.9758 16.8641 22.0948C16.7897 22.2138 16.7502 22.3512 16.75 22.4916V33.735C16.75 33.8623 16.7823 33.9874 16.844 34.0987C16.9057 34.21 16.9947 34.3038 17.1026 34.3712C17.2106 34.4386 17.3339 34.4775 17.461 34.4841C17.588 34.4907 17.7147 34.4649 17.8291 34.4091C21.8538 32.4403 24.7281 33.3628 27.7712 34.336C29.575 34.9125 31.4125 35.5003 33.49 35.5003C35.0922 35.5003 36.8397 35.1516 38.8253 34.1822C38.9514 34.1206 39.0577 34.0249 39.1322 33.9059C39.2066 33.7869 39.2461 33.6494 39.2463 33.5091V22.2656C39.2474 22.1381 39.2159 22.0123 39.1549 21.9003C39.0939 21.7882 39.0053 21.6936 38.8975 21.6253ZM20.5 30.2503C20.5 30.4492 20.421 30.64 20.2803 30.7807C20.1397 30.9213 19.9489 31.0003 19.75 31.0003C19.5511 31.0003 19.3603 30.9213 19.2197 30.7807C19.079 30.64 19 30.4492 19 30.2503V24.2503C19 24.0514 19.079 23.8607 19.2197 23.72C19.3603 23.5794 19.5511 23.5003 19.75 23.5003C19.9489 23.5003 20.1397 23.5794 20.2803 23.72C20.421 23.8607 20.5 24.0514 20.5 24.2503V30.2503ZM28 31.0003C27.4067 31.0003 26.8266 30.8244 26.3333 30.4947C25.8399 30.1651 25.4554 29.6966 25.2284 29.1484C25.0013 28.6002 24.9419 27.997 25.0576 27.4151C25.1734 26.8331 25.4591 26.2986 25.8787 25.879C26.2982 25.4595 26.8328 25.1737 27.4147 25.058C27.9967 24.9422 28.5999 25.0016 29.1481 25.2287C29.6962 25.4558 30.1648 25.8403 30.4944 26.3336C30.8241 26.827 31 27.407 31 28.0003C31 28.796 30.6839 29.559 30.1213 30.1217C29.5587 30.6843 28.7956 31.0003 28 31.0003ZM37 31.7503C37 31.9492 36.921 32.14 36.7803 32.2807C36.6397 32.4213 36.4489 32.5003 36.25 32.5003C36.0511 32.5003 35.8603 32.4213 35.7197 32.2807C35.579 32.14 35.5 31.9492 35.5 31.7503V25.7503C35.5 25.5514 35.579 25.3607 35.7197 25.22C35.8603 25.0794 36.0511 25.0003 36.25 25.0003C36.4489 25.0003 36.6397 25.0794 36.7803 25.22C36.921 25.3607 37 25.5514 37 25.7503V31.7503Z" fill="white"/>
</svg>
