<svg width="56" height="56" viewBox="0 0 56 56" fill="none" xmlns="http://www.w3.org/2000/svg">
<rect x="4" y="4" width="48" height="48" rx="24" fill="#2490EB"/>
<rect opacity="0.25" width="56" height="56" rx="28" fill="#2490EB"/>
<path fill-rule="evenodd" clip-rule="evenodd" d="M27 18C25.6739 18 24.4021 18.5268 23.4645 19.4645C22.5268 20.4021 22 21.6739 22 23C22 24.3261 22.5268 25.5979 23.4645 26.5355C24.4021 27.4732 25.6739 28 27 28C28.3261 28 29.5979 27.4732 30.5355 26.5355C31.4732 25.5979 32 24.3261 32 23C32 21.6739 31.4732 20.4021 30.5355 19.4645C29.5979 18.5268 28.3261 18 27 18ZM27 29C24.605 29 22.425 29.694 20.822 30.672C20.022 31.16 19.338 31.736 18.844 32.362C18.358 32.976 18 33.713 18 34.5C18 35.345 18.411 36.011 19.003 36.486C19.563 36.936 20.302 37.234 21.087 37.442C22.665 37.859 24.771 38 27 38C27.2307 38 27.459 37.9983 27.685 37.995C27.8525 37.9927 28.0167 37.9484 28.1626 37.8661C28.3085 37.7838 28.4313 37.6662 28.5199 37.524C28.6085 37.3819 28.66 37.2198 28.6696 37.0525C28.6792 36.8853 28.6467 36.7184 28.575 36.567C28.1958 35.7644 27.9994 34.8877 28 34C28 32.748 28.383 31.588 29.037 30.627C29.1342 30.4842 29.1928 30.3186 29.207 30.1465C29.2212 29.9743 29.1905 29.8014 29.118 29.6446C29.0455 29.4878 28.9336 29.3524 28.7932 29.2517C28.6528 29.151 28.4888 29.0884 28.317 29.07C27.8863 29.0233 27.4473 29 27 29ZM37.708 32.068C37.8902 31.8794 37.991 31.6268 37.9887 31.3646C37.9864 31.1024 37.8812 30.8516 37.6958 30.6662C37.5104 30.4808 37.2596 30.3756 36.9974 30.3733C36.7352 30.371 36.4826 30.4718 36.294 30.654L33.112 33.836L31.698 32.422C31.5094 32.2398 31.2568 32.139 30.9946 32.1413C30.7324 32.1436 30.4816 32.2488 30.2962 32.4342C30.1108 32.6196 30.0056 32.8704 30.0033 33.1326C30.001 33.3948 30.1018 33.6474 30.284 33.836L32.334 35.886C32.4362 35.9882 32.5574 36.0693 32.6909 36.1246C32.8244 36.1799 32.9675 36.2084 33.112 36.2084C33.2565 36.2084 33.3996 36.1799 33.5331 36.1246C33.6666 36.0693 33.7878 35.9882 33.89 35.886L37.708 32.068Z" fill="white"/>
</svg>
