<svg width="56" height="56" viewBox="0 0 56 56" fill="none" xmlns="http://www.w3.org/2000/svg">
<rect x="4" y="4" width="48" height="48" rx="24" fill="black"/>
<rect opacity="0.25" width="56" height="56" rx="28" fill="black"/>
<path d="M37 33.25V25H19V33.25C19 34.2446 19.3951 35.1984 20.0983 35.9016C20.8016 36.6049 21.7554 37 22.75 37H33.25C34.2446 37 35.1984 36.6049 35.9016 35.9016C36.6049 35.1984 37 34.2446 37 33.25ZM24.9955 28.372C24.9955 28.6698 24.8772 28.9553 24.6667 29.1659C24.4561 29.3765 24.1705 29.4948 23.8727 29.4948C23.575 29.4948 23.2894 29.3765 23.0788 29.1659C22.8683 28.9553 22.75 28.6698 22.75 28.372C22.75 28.0742 22.8683 27.7887 23.0788 27.5781C23.2894 27.3675 23.575 27.2492 23.8727 27.2492C24.1705 27.2492 24.4561 27.3675 24.6667 27.5781C24.8772 27.7887 24.9955 28.0742 24.9955 28.372ZM24.9955 32.122C24.9955 32.4198 24.8772 32.7053 24.6667 32.9159C24.4561 33.1265 24.1705 33.2448 23.8727 33.2448C23.575 33.2448 23.2894 33.1265 23.0788 32.9159C22.8683 32.7053 22.75 32.4198 22.75 32.122C22.75 31.8242 22.8683 31.5387 23.0788 31.3281C23.2894 31.1175 23.575 30.9993 23.8727 30.9993C24.1705 30.9993 24.4561 31.1175 24.6667 31.3281C24.8772 31.5387 24.9955 31.8242 24.9955 32.122ZM29.1235 28.372C29.1235 28.6698 29.0052 28.9553 28.7947 29.1659C28.5841 29.3765 28.2985 29.4948 28.0007 29.4948C27.703 29.4948 27.4174 29.3765 27.2068 29.1659C26.9963 28.9553 26.878 28.6698 26.878 28.372C26.878 28.0742 26.9963 27.7887 27.2068 27.5781C27.4174 27.3675 27.703 27.2492 28.0007 27.2492C28.2985 27.2492 28.5841 27.3675 28.7947 27.5781C29.0052 27.7887 29.1235 28.0742 29.1235 28.372ZM29.1235 32.122C29.1235 32.4198 29.0052 32.7053 28.7947 32.9159C28.5841 33.1265 28.2985 33.2448 28.0007 33.2448C27.703 33.2448 27.4174 33.1265 27.2068 32.9159C26.9963 32.7053 26.878 32.4198 26.878 32.122C26.878 31.8242 26.9963 31.5387 27.2068 31.3281C27.4174 31.1175 27.703 30.9993 28.0007 30.9993C28.2985 30.9993 28.5841 31.1175 28.7947 31.3281C29.0052 31.5387 29.1235 31.8242 29.1235 32.122ZM33.2455 28.372C33.2455 28.6698 33.1272 28.9553 32.9167 29.1659C32.7061 29.3765 32.4205 29.4948 32.1227 29.4948C31.825 29.4948 31.5394 29.3765 31.3288 29.1659C31.1183 28.9553 31 28.6698 31 28.372C31 28.0742 31.1183 27.7887 31.3288 27.5781C31.5394 27.3675 31.825 27.2492 32.1227 27.2492C32.4205 27.2492 32.7061 27.3675 32.9167 27.5781C33.1272 27.7887 33.2455 28.0742 33.2455 28.372ZM37 22.75C37 21.7554 36.6049 20.8016 35.9016 20.0983C35.1984 19.3951 34.2446 19 33.25 19H22.75C21.7554 19 20.8016 19.3951 20.0983 20.0983C19.3951 20.8016 19 21.7554 19 22.75V23.5H37V22.75Z" fill="white"/>
</svg>
